<svg xmlns="http://www.w3.org/2000/svg" xmlns:xlink="http://www.w3.org/1999/xlink" width="164" zoomAndPan="magnify" viewBox="0 0 123 44.999999" height="60" preserveAspectRatio="xMidYMid meet" version="1.0"><defs><g/><clipPath id="9b329c0c32"><path d="M 30.832031 13.871094 L 42.832031 13.871094 L 42.832031 31.871094 L 30.832031 31.871094 Z M 30.832031 13.871094 " clip-rule="nonzero"/></clipPath></defs><g fill="#000000" fill-opacity="1"><g transform="translate(7.017836, 32.213701)"><g><path d="M 3.734375 -15.96875 L 6.40625 -15.96875 C 7.070312 -15.96875 7.640625 -15.734375 8.109375 -15.265625 C 8.585938 -14.796875 8.828125 -14.226562 8.828125 -13.5625 L 8.828125 -13.484375 C 8.828125 -12.816406 8.585938 -12.25 8.109375 -11.78125 C 7.640625 -11.3125 7.070312 -11.078125 6.40625 -11.078125 L 3.734375 -11.078125 Z M 11.171875 -13.5625 C 11.171875 -14.875 10.707031 -15.992188 9.78125 -16.921875 C 8.851562 -17.847656 7.726562 -18.3125 6.40625 -18.3125 L 2.5625 -18.3125 C 2.238281 -18.3125 1.957031 -18.203125 1.71875 -17.984375 C 1.5 -17.753906 1.390625 -17.476562 1.390625 -17.15625 L 1.390625 -1.1875 C 1.390625 -0.851562 1.5 -0.570312 1.71875 -0.34375 C 1.957031 -0.113281 2.238281 0 2.5625 0 C 2.882812 0 3.160156 -0.113281 3.390625 -0.34375 C 3.617188 -0.570312 3.734375 -0.851562 3.734375 -1.1875 L 3.734375 -8.71875 L 6.40625 -8.71875 C 7.070312 -8.71875 7.640625 -8.484375 8.109375 -8.015625 C 8.585938 -7.546875 8.828125 -6.984375 8.828125 -6.328125 L 8.828125 -1.1875 C 8.828125 -0.851562 8.941406 -0.570312 9.171875 -0.34375 C 9.390625 -0.113281 9.664062 0 10 0 C 10.320312 0 10.597656 -0.113281 10.828125 -0.34375 C 11.054688 -0.570312 11.171875 -0.851562 11.171875 -1.1875 L 11.171875 -6.328125 C 11.171875 -7.753906 10.625 -8.945312 9.53125 -9.90625 C 10.625 -10.851562 11.171875 -12.046875 11.171875 -13.484375 Z M 11.171875 -13.5625 "/></g></g></g><g fill="#000000" fill-opacity="1"><g transform="translate(19.196498, 32.213701)"><g><path d="M 3.734375 -2.34375 L 3.734375 -8.5 L 8.015625 -8.5 C 8.335938 -8.5 8.617188 -8.617188 8.859375 -8.859375 C 9.078125 -9.078125 9.1875 -9.351562 9.1875 -9.6875 C 9.1875 -10.007812 9.078125 -10.285156 8.859375 -10.515625 C 8.617188 -10.734375 8.335938 -10.84375 8.015625 -10.84375 L 3.734375 -10.84375 L 3.734375 -15.734375 L 8.765625 -15.734375 C 9.085938 -15.734375 9.363281 -15.847656 9.59375 -16.078125 C 9.832031 -16.304688 9.953125 -16.582031 9.953125 -16.90625 C 9.953125 -17.226562 9.832031 -17.503906 9.59375 -17.734375 C 9.363281 -17.960938 9.085938 -18.078125 8.765625 -18.078125 L 2.5625 -18.078125 C 2.238281 -18.078125 1.957031 -17.960938 1.71875 -17.734375 C 1.5 -17.503906 1.390625 -17.226562 1.390625 -16.90625 L 1.390625 -1.1875 C 1.390625 -0.851562 1.5 -0.570312 1.71875 -0.34375 C 1.957031 -0.113281 2.238281 0 2.5625 0 L 8.765625 0 C 9.085938 0 9.363281 -0.113281 9.59375 -0.34375 C 9.832031 -0.570312 9.953125 -0.851562 9.953125 -1.1875 C 9.953125 -1.5 9.832031 -1.773438 9.59375 -2.015625 C 9.363281 -2.234375 9.085938 -2.34375 8.765625 -2.34375 Z M 3.734375 -2.34375 "/></g></g></g><g fill="#000000" fill-opacity="1"><g transform="translate(30.146027, 32.213701)"><g/></g></g><g fill="#000000" fill-opacity="1"><g transform="translate(36.832352, 32.213701)"><g/></g></g><g fill="#000000" fill-opacity="1"><g transform="translate(43.519443, 32.213701)"><g><path d="M 11.796875 -1.125 C 11.804688 -1.1875 11.8125 -1.207031 11.8125 -1.1875 L 11.8125 -17.34375 C 11.8125 -17.675781 11.691406 -17.957031 11.453125 -18.1875 C 11.222656 -18.414062 10.945312 -18.53125 10.625 -18.53125 C 10.300781 -18.53125 10.023438 -18.414062 9.796875 -18.1875 C 9.566406 -17.957031 9.453125 -17.675781 9.453125 -17.34375 L 9.453125 -6.171875 L 3.609375 -17.890625 C 3.597656 -17.890625 3.59375 -17.898438 3.59375 -17.921875 C 3.582031 -17.921875 3.578125 -17.921875 3.578125 -17.921875 C 3.546875 -17.984375 3.515625 -18.03125 3.484375 -18.0625 L 3.484375 -18.078125 C 3.242188 -18.378906 2.9375 -18.53125 2.5625 -18.53125 C 2.238281 -18.53125 1.957031 -18.414062 1.71875 -18.1875 C 1.5 -17.957031 1.390625 -17.675781 1.390625 -17.34375 L 1.390625 -1.1875 C 1.390625 -0.851562 1.5 -0.578125 1.71875 -0.359375 C 1.957031 -0.117188 2.238281 0 2.5625 0 C 2.882812 0 3.160156 -0.117188 3.390625 -0.359375 C 3.617188 -0.578125 3.734375 -0.851562 3.734375 -1.1875 L 3.734375 -12.359375 L 9.578125 -0.640625 C 9.734375 -0.359375 9.960938 -0.164062 10.265625 -0.0625 C 10.566406 0.0390625 10.867188 0.015625 11.171875 -0.140625 C 11.503906 -0.304688 11.707031 -0.578125 11.78125 -0.953125 C 11.78125 -0.953125 11.78125 -0.960938 11.78125 -0.984375 C 11.789062 -1.023438 11.796875 -1.070312 11.796875 -1.125 Z M 11.796875 -1.125 "/></g></g></g><g fill="#000000" fill-opacity="1"><g transform="translate(56.703568, 32.213701)"><g><path d="M 1.6875 -18.359375 C 1.351562 -18.359375 1.070312 -18.242188 0.84375 -18.015625 C 0.613281 -17.785156 0.5 -17.507812 0.5 -17.1875 C 0.5 -16.863281 0.613281 -16.585938 0.84375 -16.359375 C 1.070312 -16.117188 1.351562 -16 1.6875 -16 L 4.8125 -16 L 4.8125 -1.1875 C 4.8125 -0.851562 4.925781 -0.570312 5.15625 -0.34375 C 5.382812 -0.113281 5.664062 0 6 0 C 6.3125 0 6.585938 -0.113281 6.828125 -0.34375 C 7.046875 -0.570312 7.15625 -0.851562 7.15625 -1.1875 L 7.15625 -16 L 10.3125 -16 C 10.632812 -16 10.910156 -16.117188 11.140625 -16.359375 C 11.359375 -16.585938 11.46875 -16.863281 11.46875 -17.1875 C 11.46875 -17.507812 11.359375 -17.785156 11.140625 -18.015625 C 10.910156 -18.242188 10.632812 -18.359375 10.3125 -18.359375 Z M 1.6875 -18.359375 C 1.351562 -18.359375 1.070312 -18.242188 0.84375 -18.015625 C 0.613281 -17.785156 0.5 -17.507812 0.5 -17.1875 C 0.5 -16.863281 0.613281 -16.585938 0.84375 -16.359375 C 1.070312 -16.117188 1.351562 -16 1.6875 -16 L 4.8125 -16 L 4.8125 -1.1875 C 4.8125 -0.851562 4.925781 -0.570312 5.15625 -0.34375 C 5.382812 -0.113281 5.664062 0 6 0 C 6.3125 0 6.585938 -0.113281 6.828125 -0.34375 C 7.046875 -0.570312 7.15625 -0.851562 7.15625 -1.1875 L 7.15625 -16 L 10.3125 -16 C 10.632812 -16 10.910156 -16.117188 11.140625 -16.359375 C 11.359375 -16.585938 11.46875 -16.863281 11.46875 -17.1875 C 11.46875 -17.507812 11.359375 -17.785156 11.140625 -18.015625 C 10.910156 -18.242188 10.632812 -18.359375 10.3125 -18.359375 Z M 1.6875 -18.359375 "/></g></g></g><g fill="#000000" fill-opacity="1"><g transform="translate(68.681138, 32.213701)"><g><path d="M 3.734375 -2.34375 L 3.734375 -8.5 L 8.015625 -8.5 C 8.335938 -8.5 8.617188 -8.617188 8.859375 -8.859375 C 9.078125 -9.078125 9.1875 -9.351562 9.1875 -9.6875 C 9.1875 -10.007812 9.078125 -10.285156 8.859375 -10.515625 C 8.617188 -10.734375 8.335938 -10.84375 8.015625 -10.84375 L 3.734375 -10.84375 L 3.734375 -15.734375 L 8.765625 -15.734375 C 9.085938 -15.734375 9.363281 -15.847656 9.59375 -16.078125 C 9.832031 -16.304688 9.953125 -16.582031 9.953125 -16.90625 C 9.953125 -17.226562 9.832031 -17.503906 9.59375 -17.734375 C 9.363281 -17.960938 9.085938 -18.078125 8.765625 -18.078125 L 2.5625 -18.078125 C 2.238281 -18.078125 1.957031 -17.960938 1.71875 -17.734375 C 1.5 -17.503906 1.390625 -17.226562 1.390625 -16.90625 L 1.390625 -1.1875 C 1.390625 -0.851562 1.5 -0.570312 1.71875 -0.34375 C 1.957031 -0.113281 2.238281 0 2.5625 0 L 8.765625 0 C 9.085938 0 9.363281 -0.113281 9.59375 -0.34375 C 9.832031 -0.570312 9.953125 -0.851562 9.953125 -1.1875 C 9.953125 -1.5 9.832031 -1.773438 9.59375 -2.015625 C 9.363281 -2.234375 9.085938 -2.34375 8.765625 -2.34375 Z M 3.734375 -2.34375 "/></g></g></g><g fill="#000000" fill-opacity="1"><g transform="translate(79.628109, 32.213701)"><g><path d="M 5.84375 -11.109375 C 5.53125 -11.097656 5.257812 -10.976562 5.03125 -10.75 C 4.8125 -10.519531 4.703125 -10.25 4.703125 -9.9375 C 4.703125 -9.613281 4.8125 -9.335938 5.03125 -9.109375 C 5.257812 -8.878906 5.53125 -8.757812 5.84375 -8.75 C 6.507812 -8.75 7.078125 -8.515625 7.546875 -8.046875 C 8.015625 -7.578125 8.25 -7.007812 8.25 -6.34375 L 8.25 -4.765625 C 8.25 -4.097656 8.015625 -3.53125 7.546875 -3.0625 C 7.078125 -2.582031 6.507812 -2.34375 5.84375 -2.34375 L 5.765625 -2.34375 C 5.097656 -2.34375 4.53125 -2.582031 4.0625 -3.0625 C 3.59375 -3.53125 3.359375 -4.097656 3.359375 -4.765625 L 3.359375 -13.765625 C 3.359375 -14.429688 3.59375 -15 4.0625 -15.46875 C 4.53125 -15.9375 5.097656 -16.171875 5.765625 -16.171875 L 5.84375 -16.171875 C 6.363281 -16.171875 6.832031 -16.019531 7.25 -15.71875 C 7.675781 -15.414062 7.96875 -15.019531 8.125 -14.53125 C 8.300781 -14.019531 8.671875 -13.765625 9.234375 -13.765625 C 9.617188 -13.765625 9.9375 -13.925781 10.1875 -14.25 C 10.414062 -14.570312 10.46875 -14.921875 10.34375 -15.296875 C 10.03125 -16.242188 9.460938 -17.015625 8.640625 -17.609375 C 7.804688 -18.210938 6.875 -18.515625 5.84375 -18.515625 L 5.765625 -18.515625 C 4.453125 -18.515625 3.332031 -18.050781 2.40625 -17.125 C 1.46875 -16.195312 1 -15.078125 1 -13.765625 L 1 -4.765625 C 1 -3.453125 1.46875 -2.328125 2.40625 -1.390625 C 3.332031 -0.460938 4.453125 0 5.765625 0 L 5.84375 0 C 7.15625 0 8.273438 -0.460938 9.203125 -1.390625 C 10.128906 -2.328125 10.59375 -3.453125 10.59375 -4.765625 L 10.59375 -6.34375 C 10.59375 -7.65625 10.132812 -8.769531 9.21875 -9.6875 C 8.289062 -10.625 7.175781 -11.097656 5.875 -11.109375 Z M 5.84375 -11.109375 "/></g></g></g><g fill="#000000" fill-opacity="1"><g transform="translate(91.22863, 32.213701)"><g><path d="M 3.734375 -15.96875 L 6.40625 -15.96875 C 7.070312 -15.96875 7.640625 -15.734375 8.109375 -15.265625 C 8.585938 -14.796875 8.828125 -14.226562 8.828125 -13.5625 L 8.828125 -13.484375 C 8.828125 -12.816406 8.585938 -12.25 8.109375 -11.78125 C 7.640625 -11.3125 7.070312 -11.078125 6.40625 -11.078125 L 3.734375 -11.078125 Z M 11.171875 -13.5625 C 11.171875 -14.875 10.707031 -15.992188 9.78125 -16.921875 C 8.851562 -17.847656 7.726562 -18.3125 6.40625 -18.3125 L 2.5625 -18.3125 C 2.238281 -18.3125 1.957031 -18.203125 1.71875 -17.984375 C 1.5 -17.753906 1.390625 -17.476562 1.390625 -17.15625 L 1.390625 -1.1875 C 1.390625 -0.851562 1.5 -0.570312 1.71875 -0.34375 C 1.957031 -0.113281 2.238281 0 2.5625 0 C 2.882812 0 3.160156 -0.113281 3.390625 -0.34375 C 3.617188 -0.570312 3.734375 -0.851562 3.734375 -1.1875 L 3.734375 -8.71875 L 6.40625 -8.71875 C 7.070312 -8.71875 7.640625 -8.484375 8.109375 -8.015625 C 8.585938 -7.546875 8.828125 -6.984375 8.828125 -6.328125 L 8.828125 -1.1875 C 8.828125 -0.851562 8.941406 -0.570312 9.171875 -0.34375 C 9.390625 -0.113281 9.664062 0 10 0 C 10.320312 0 10.597656 -0.113281 10.828125 -0.34375 C 11.054688 -0.570312 11.171875 -0.851562 11.171875 -1.1875 L 11.171875 -6.328125 C 11.171875 -7.753906 10.625 -8.945312 9.53125 -9.90625 C 10.625 -10.851562 11.171875 -12.046875 11.171875 -13.484375 Z M 11.171875 -13.5625 "/></g></g></g><g fill="#000000" fill-opacity="1"><g transform="translate(103.407292, 32.213701)"><g><path d="M 3.734375 -11.078125 L 3.734375 -13.765625 C 3.734375 -14.085938 3.796875 -14.394531 3.921875 -14.6875 C 3.929688 -14.707031 3.9375 -14.710938 3.9375 -14.703125 C 4.019531 -14.921875 4.132812 -15.117188 4.28125 -15.296875 C 4.28125 -15.296875 4.285156 -15.296875 4.296875 -15.296875 C 4.296875 -15.304688 4.300781 -15.316406 4.3125 -15.328125 C 4.382812 -15.410156 4.46875 -15.492188 4.5625 -15.578125 C 4.601562 -15.617188 4.628906 -15.640625 4.640625 -15.640625 C 4.691406 -15.679688 4.742188 -15.71875 4.796875 -15.75 C 4.835938 -15.78125 4.890625 -15.816406 4.953125 -15.859375 C 4.992188 -15.878906 5.050781 -15.90625 5.125 -15.9375 C 5.175781 -15.96875 5.234375 -15.992188 5.296875 -16.015625 L 5.421875 -16.0625 C 5.515625 -16.09375 5.609375 -16.113281 5.703125 -16.125 C 5.722656 -16.125 5.757812 -16.128906 5.8125 -16.140625 C 5.925781 -16.160156 6.03125 -16.171875 6.125 -16.171875 L 6.234375 -16.171875 C 6.328125 -16.171875 6.429688 -16.160156 6.546875 -16.140625 C 6.597656 -16.128906 6.632812 -16.125 6.65625 -16.125 C 6.75 -16.113281 6.84375 -16.09375 6.9375 -16.0625 C 6.945312 -16.0625 6.984375 -16.046875 7.046875 -16.015625 C 7.109375 -15.992188 7.171875 -15.96875 7.234375 -15.9375 C 7.296875 -15.90625 7.351562 -15.878906 7.40625 -15.859375 C 7.46875 -15.816406 7.519531 -15.78125 7.5625 -15.75 C 7.613281 -15.71875 7.664062 -15.679688 7.71875 -15.640625 C 7.738281 -15.617188 7.765625 -15.597656 7.796875 -15.578125 C 7.890625 -15.492188 7.972656 -15.410156 8.046875 -15.328125 C 8.066406 -15.296875 8.078125 -15.285156 8.078125 -15.296875 C 8.210938 -15.117188 8.328125 -14.921875 8.421875 -14.703125 L 8.4375 -14.6875 C 8.5625 -14.394531 8.625 -14.085938 8.625 -13.765625 L 8.625 -11.078125 Z M 10.734375 -15.25 C 10.734375 -15.269531 10.726562 -15.285156 10.71875 -15.296875 C 10.207031 -16.828125 9.175781 -17.832031 7.625 -18.3125 C 7.625 -18.3125 7.617188 -18.3125 7.609375 -18.3125 C 7.484375 -18.351562 7.351562 -18.390625 7.21875 -18.421875 L 7.171875 -18.421875 C 7.148438 -18.429688 7.132812 -18.4375 7.125 -18.4375 C 7.007812 -18.457031 6.890625 -18.476562 6.765625 -18.5 L 6.65625 -18.515625 C 6.5 -18.515625 6.351562 -18.515625 6.21875 -18.515625 L 6.140625 -18.515625 C 6.003906 -18.515625 5.851562 -18.515625 5.6875 -18.515625 L 5.59375 -18.5 C 5.46875 -18.476562 5.347656 -18.457031 5.234375 -18.4375 C 5.222656 -18.4375 5.207031 -18.429688 5.1875 -18.421875 L 5.140625 -18.421875 C 5.003906 -18.390625 4.875 -18.351562 4.75 -18.3125 C 4.738281 -18.3125 4.726562 -18.3125 4.71875 -18.3125 C 3.175781 -17.832031 2.144531 -16.828125 1.625 -15.296875 C 1.632812 -15.335938 1.628906 -15.3125 1.609375 -15.21875 C 1.460938 -14.75 1.390625 -14.265625 1.390625 -13.765625 L 1.390625 -1.1875 C 1.390625 -0.851562 1.5 -0.570312 1.71875 -0.34375 C 1.957031 -0.113281 2.238281 0 2.5625 0 C 2.882812 0 3.160156 -0.113281 3.390625 -0.34375 C 3.617188 -0.570312 3.734375 -0.851562 3.734375 -1.1875 L 3.734375 -8.71875 L 8.625 -8.71875 L 8.625 -1.1875 C 8.625 -0.851562 8.738281 -0.570312 8.96875 -0.34375 C 9.1875 -0.113281 9.460938 0 9.796875 0 C 10.117188 0 10.394531 -0.113281 10.625 -0.34375 C 10.851562 -0.570312 10.96875 -0.851562 10.96875 -1.1875 L 10.96875 -13.765625 C 10.96875 -14.265625 10.890625 -14.75 10.734375 -15.21875 Z M 10.734375 -15.25 "/></g></g></g><g clip-path="url(#9b329c0c32)"><path fill="#ef4232" d="M 36.949219 13.871094 C 38.449219 13.871094 39.835938 14.472656 40.847656 15.484375 C 41.820312 16.457031 42.457031 17.84375 42.457031 19.378906 C 42.457031 20.355469 42.195312 21.292969 41.707031 22.117188 C 41.332031 22.753906 40.847656 23.316406 40.246094 23.765625 L 42.71875 31.183594 L 43.058594 32.234375 L 30.839844 32.234375 L 31.179688 31.183594 L 33.613281 23.765625 C 33.050781 23.316406 32.527344 22.753906 32.152344 22.117188 C 31.703125 21.292969 31.441406 20.355469 31.441406 19.378906 C 31.441406 17.84375 32.039062 16.457031 33.050781 15.484375 C 34.0625 14.472656 35.414062 13.871094 36.949219 13.871094 Z M 39.722656 16.605469 C 39.011719 15.894531 38.035156 15.445312 36.949219 15.445312 C 35.863281 15.445312 34.886719 15.894531 34.175781 16.605469 C 33.464844 17.320312 33.015625 18.292969 33.015625 19.378906 C 33.015625 20.09375 33.203125 20.730469 33.539062 21.328125 C 33.875 21.929688 34.363281 22.414062 34.960938 22.753906 L 35.523438 23.089844 L 35.300781 23.691406 L 35.1875 24.066406 L 33.015625 30.625 L 40.847656 30.625 L 38.710938 24.066406 L 38.558594 23.691406 L 38.375 23.089844 L 38.898438 22.753906 C 39.496094 22.414062 39.984375 21.929688 40.359375 21.328125 C 40.660156 20.730469 40.847656 20.09375 40.847656 19.378906 C 40.847656 18.292969 40.433594 17.320312 39.722656 16.605469 Z M 39.722656 16.605469 " fill-opacity="1" fill-rule="nonzero"/></g></svg>